<svg width="14" height="15" viewBox="0 0 14 15" fill="none" xmlns="http://www.w3.org/2000/svg">
<path d="M12.5746 14.9352L7.80758 10.0486C6.76669 10.7526 5.50802 11.0356 4.27531 10.8427C3.0426 10.6498 1.92357 9.99471 1.13491 9.00435C0.346247 8.01399 -0.0559253 6.75879 0.00627149 5.48183C0.0684683 4.20487 0.590608 2.997 1.47158 2.09213C2.35395 1.18852 3.53198 0.652806 4.77752 0.58876C6.02306 0.524714 7.24746 0.93689 8.21358 1.74546C9.17969 2.55402 9.81876 3.70143 10.007 4.96546C10.1953 6.22948 9.91931 7.52016 9.23258 8.58751L13.9976 13.4762L12.5746 14.9352ZM5.03158 2.6458C4.23063 2.64526 3.46227 2.97097 2.89553 3.55128C2.3288 4.1316 2.01011 4.91898 2.00958 5.74021C2.00905 6.56144 2.32672 7.34925 2.8927 7.93033C3.45869 8.51141 4.22663 8.83817 5.02758 8.83871C5.42417 8.83898 5.81693 8.75916 6.18344 8.60379C6.54994 8.44843 6.88301 8.22057 7.16363 7.93323C7.44425 7.64589 7.66692 7.30469 7.81893 6.92911C7.97094 6.55354 8.04932 6.15094 8.04958 5.74431C8.04984 5.33768 7.97199 4.93497 7.82046 4.55919C7.66893 4.18341 7.4467 3.84191 7.16646 3.55418C6.88621 3.26646 6.55343 3.03815 6.18713 2.88229C5.82083 2.72643 5.42817 2.64607 5.03158 2.6458V2.6458Z" fill="black"/>
</svg>
